<svg width="800" height="520" viewBox="0 0 800 520" fill="none" xmlns="http://www.w3.org/2000/svg">
  <rect width="800" height="520" fill="#EDF2FB"/>
  <circle cx="84" cy="108" r="84" fill="#2E67D0" fill-opacity="0.12"/>

  <!-- Plan card (top center) — shared by coach -->
  <rect x="190" y="84" width="420" height="86" rx="18" fill="#1A2840"/>
  <!-- Plan badge -->
  <rect x="218" y="104" width="64" height="16" rx="8" fill="#FC4C02" fill-opacity="0.55"/>
  <!-- Plan title bar -->
  <rect x="294" y="104" width="152" height="16" rx="8" fill="white" fill-opacity="0.45"/>
  <!-- Subtitle bar -->
  <rect x="218" y="128" width="210" height="11" rx="5.5" fill="white" fill-opacity="0.18"/>
  <!-- Share icon (top-right of card) -->
  <circle cx="568" cy="127" r="16" fill="white" fill-opacity="0.1"/>
  <path d="M562 132v-8h12v8" stroke="white" stroke-opacity="0.6" stroke-width="2" stroke-linecap="round" stroke-linejoin="round"/>
  <path d="M568 124v-8M564 120l4-4 4 4" stroke="white" stroke-opacity="0.6" stroke-width="2" stroke-linecap="round" stroke-linejoin="round"/>

  <!-- Connector lines from plan to athlete cards -->
  <path d="M310 170 L230 216" stroke="#C8D6EC" stroke-width="2" stroke-dasharray="6 5"/>
  <path d="M490 170 L570 216" stroke="#C8D6EC" stroke-width="2" stroke-dasharray="6 5"/>

  <!-- Athlete 1 card -->
  <rect x="64" y="216" width="298" height="224" rx="18" fill="white" stroke="#D4DCF0" stroke-width="1.5"/>
  <!-- Avatar circle -->
  <circle cx="120" cy="272" r="32" fill="#FC4C02" fill-opacity="0.18"/>
  <circle cx="120" cy="262" r="13" fill="#FC4C02" fill-opacity="0.5"/>
  <path d="M92 300 Q120 282 148 300" fill="#FC4C02" fill-opacity="0.28"/>
  <!-- Name + role -->
  <rect x="168" y="258" width="148" height="16" rx="8" fill="#1A2840" fill-opacity="0.65"/>
  <rect x="168" y="282" width="100" height="11" rx="5.5" fill="#8BA0C0"/>
  <!-- Progress label -->
  <rect x="96" y="322" width="60" height="11" rx="5.5" fill="#0F8A47" fill-opacity="0.45"/>
  <rect x="164" y="322" width="48" height="11" rx="5.5" fill="#C0CEDF"/>
  <!-- Progress bar -->
  <rect x="96" y="342" width="238" height="12" rx="6" fill="#E8F0F8"/>
  <rect x="96" y="342" width="178" height="12" rx="6" fill="#0F8A47" fill-opacity="0.55"/>
  <!-- Status chips -->
  <rect x="96" y="368" width="80" height="26" rx="13" fill="#0F8A47" fill-opacity="0.14"/>
  <rect x="184" y="368" width="84" height="26" rx="13" fill="#E8EEF5"/>

  <!-- Athlete 2 card -->
  <rect x="438" y="216" width="298" height="224" rx="18" fill="white" stroke="#D4DCF0" stroke-width="1.5"/>
  <!-- Avatar circle -->
  <circle cx="494" cy="272" r="32" fill="#2E67D0" fill-opacity="0.15"/>
  <circle cx="494" cy="262" r="13" fill="#2E67D0" fill-opacity="0.42"/>
  <path d="M466 300 Q494 282 522 300" fill="#2E67D0" fill-opacity="0.22"/>
  <!-- Name + role -->
  <rect x="542" y="258" width="152" height="16" rx="8" fill="#1A2840" fill-opacity="0.65"/>
  <rect x="542" y="282" width="92" height="11" rx="5.5" fill="#8BA0C0"/>
  <!-- Progress label -->
  <rect x="470" y="322" width="60" height="11" rx="5.5" fill="#FC4C02" fill-opacity="0.45"/>
  <rect x="538" y="322" width="48" height="11" rx="5.5" fill="#C0CEDF"/>
  <!-- Progress bar -->
  <rect x="470" y="342" width="238" height="12" rx="6" fill="#E8F0F8"/>
  <rect x="470" y="342" width="126" height="12" rx="6" fill="#FC4C02" fill-opacity="0.5"/>
  <!-- Status chips -->
  <rect x="470" y="368" width="88" height="26" rx="13" fill="#FC4C02" fill-opacity="0.12"/>
  <rect x="566" y="368" width="76" height="26" rx="13" fill="#E8EEF5"/>
</svg>
