<svg width="1200" height="800" viewBox="0 0 1200 800" fill="none" xmlns="http://www.w3.org/2000/svg">
  <defs>
    <linearGradient id="bg" x1="74" y1="58" x2="1092" y2="742" gradientUnits="userSpaceOnUse">
      <stop stop-color="#DFE8FF"/>
      <stop offset="1" stop-color="#B8C7E8"/>
    </linearGradient>
    <linearGradient id="track" x1="107" y1="680" x2="1020" y2="245" gradientUnits="userSpaceOnUse">
      <stop stop-color="#1E2D47"/>
      <stop offset="1" stop-color="#324A73"/>
    </linearGradient>
    <linearGradient id="card" x1="719" y1="205" x2="1098" y2="363" gradientUnits="userSpaceOnUse">
      <stop stop-color="#FFFFFF"/>
      <stop offset="1" stop-color="#F4F7FC"/>
    </linearGradient>
  </defs>

  <rect width="1200" height="800" rx="40" fill="url(#bg)"/>
  <circle cx="135" cy="125" r="140" fill="#FC4C02" fill-opacity="0.2"/>
  <circle cx="1030" cy="110" r="180" fill="#2A64D8" fill-opacity="0.18"/>

  <path d="M84 700C223 566 376 489 543 470C707 452 866 485 1040 604L1040 800L84 800L84 700Z" fill="url(#track)"/>
  <path d="M131 706C250 590 391 519 546 501C696 483 843 511 1009 615" stroke="#FC4C02" stroke-width="10" stroke-linecap="round"/>
  <path d="M150 752C271 640 404 571 547 551C686 533 826 560 978 649" stroke="#F0A17E" stroke-width="7" stroke-linecap="round"/>

  <g transform="translate(760 188)">
    <rect width="356" height="202" rx="18" fill="url(#card)" stroke="#CFD9EC"/>
    <rect x="22" y="20" width="112" height="28" rx="14" fill="#FC4C02" fill-opacity="0.15"/>
    <rect x="22" y="65" width="150" height="16" rx="8" fill="#283450" fill-opacity="0.75"/>
    <rect x="22" y="90" width="250" height="13" rx="6.5" fill="#55607A" fill-opacity="0.35"/>
    <rect x="22" y="120" width="312" height="10" rx="5" fill="#D6DDEA"/>
    <rect x="22" y="140" width="268" height="10" rx="5" fill="#D6DDEA"/>
    <rect x="22" y="160" width="192" height="10" rx="5" fill="#D6DDEA"/>
    <rect x="242" y="65" width="92" height="28" rx="14" fill="#22C55E" fill-opacity="0.2"/>
  </g>

  <g transform="translate(636 430)">
    <rect width="196" height="132" rx="14" fill="#FFFFFF" fill-opacity="0.9" stroke="#D4DEEE"/>
    <rect x="16" y="18" width="66" height="18" rx="9" fill="#FC4C02" fill-opacity="0.17"/>
    <path d="M26 91L60 62L95 76L132 45L169 58" stroke="#2C6CD3" stroke-width="6" stroke-linecap="round" stroke-linejoin="round"/>
    <circle cx="60" cy="62" r="5" fill="#2C6CD3"/>
    <circle cx="95" cy="76" r="5" fill="#2C6CD3"/>
    <circle cx="132" cy="45" r="5" fill="#2C6CD3"/>
    <circle cx="169" cy="58" r="5" fill="#2C6CD3"/>
  </g>
</svg>
